<svg version="1.1" id="Layer_1" xmlns="http://www.w3.org/2000/svg" xmlns:xlink="http://www.w3.org/1999/xlink" x="0px" y="0px"
	 width="100%" viewBox="0 0 100 100" enable-background="new 0 0 100 100" xml:space="preserve">
<path fill="#FEFEFC" opacity="1.000000" stroke="none" 
	d="
M1.000000,39.000000 
	C1.000000,26.000002 1.000000,13.500005 1.000000,1.000005 
	C34.333324,1.000003 67.666649,1.000003 100.999985,1.000002 
	C100.999985,34.333317 100.999985,67.666634 100.999992,100.999969 
	C67.666687,100.999977 34.333374,100.999977 1.000030,100.999985 
	C1.000000,80.500000 1.000000,60.000000 1.000000,39.000000 
M58.916328,89.904770 
	C59.277554,88.936554 59.638779,87.968338 60.322788,86.448830 
	C61.309734,85.318611 62.296684,84.188393 63.916351,82.893547 
	C65.607224,81.936966 67.298096,80.980377 69.713127,79.987785 
	C70.437569,79.965691 71.162010,79.943596 72.590866,79.900345 
	C73.724388,77.931244 74.857910,75.962151 76.570625,73.661377 
	C76.693459,72.809555 76.816292,71.957741 76.997711,70.291512 
	C76.125572,67.974045 75.297005,65.638931 74.367630,63.344658 
	C73.612923,61.481564 72.737259,59.667465 72.164642,57.268005 
	C73.050842,56.151215 73.937035,55.034424 75.441010,53.914856 
	C75.604446,53.268646 75.767883,52.622440 76.029350,51.340080 
	C76.391617,50.567490 76.753883,49.794895 77.796082,48.869236 
	C77.918564,47.250969 78.041039,45.632706 78.042747,43.320484 
	C77.928268,42.868080 77.813782,42.415672 77.882751,41.152660 
	C77.796280,39.779858 77.709801,38.407059 77.901306,36.540764 
	C77.964516,36.362858 78.027718,36.184956 78.410156,35.801468 
	C78.260887,35.533836 78.111618,35.266201 77.732773,34.351772 
	C77.477226,33.239204 77.221680,32.126640 77.496231,30.529774 
	C77.248917,26.329548 77.001602,22.129320 76.920174,17.170052 
	C77.325371,15.851138 77.730560,14.532224 78.272697,12.767565 
	C76.670441,12.396291 75.355194,12.091520 73.884628,11.152669 
	C71.363060,10.104225 69.208817,10.106233 67.991890,13.118849 
	C67.991890,13.118849 68.131531,13.134653 67.390724,13.046640 
	C66.630302,13.744753 65.869881,14.442865 64.989601,15.049297 
	C64.989601,15.049297 65.125130,15.115167 64.279938,15.053844 
	C61.424366,15.415963 58.568798,15.778082 54.825500,16.122190 
	C51.208023,15.990459 47.590542,15.858728 43.328041,15.268991 
	C38.855686,15.526998 34.383327,15.785005 29.325006,15.787368 
	C27.876240,14.992341 26.427475,14.197314 24.328970,13.028827 
	C22.890110,12.844740 21.451248,12.660653 19.298183,12.259517 
	C18.182060,12.533817 17.065939,12.808118 15.346745,13.230630 
	C16.805231,15.139392 17.765774,16.396481 18.703409,18.500671 
	C18.452431,22.531319 18.781000,26.704578 17.831453,30.563326 
	C15.768833,38.945374 15.376653,46.984333 20.500864,54.385128 
	C22.257204,56.921772 24.671768,59.002666 26.047878,60.492874 
	C23.006643,64.564461 20.199905,68.322105 17.748283,71.604324 
	C19.796206,73.755814 21.738953,74.852356 21.772541,76.004547 
	C21.885092,79.865128 23.863352,80.438614 27.365921,80.440796 
	C29.286261,81.601089 31.206598,82.761375 33.610950,84.227402 
	C34.070152,84.828857 34.529350,85.430321 35.064114,86.784859 
	C35.404819,88.031876 35.668839,89.306175 36.100861,90.520714 
	C37.311123,93.923088 42.652607,95.404991 45.524773,92.917542 
	C45.870018,92.841690 46.215263,92.765846 47.462811,92.881172 
	C48.667458,92.904564 49.872108,92.927956 51.532448,92.918228 
	C51.532448,92.918228 51.989033,92.934998 52.079250,93.600838 
	C55.067619,94.930687 57.228981,94.482208 58.072258,90.462952 
	C58.072258,90.462952 58.272800,90.065323 58.916328,89.904770 
z"/>
<path fill="#A8744D" opacity="1.000000" stroke="none" 
	d="
M77.623322,37.034256 
	C77.709801,38.407059 77.796280,39.779858 77.461868,41.611412 
	C75.751221,41.423958 74.339287,40.938980 73.208855,40.082481 
	C72.237442,39.346470 71.587524,38.186138 70.811203,37.202156 
	C70.826973,37.190872 70.841286,37.156761 70.895172,36.759323 
	C70.312401,31.510641 69.466728,30.824327 65.555283,32.193039 
	C64.145454,31.748039 63.071854,31.367369 61.921864,30.819580 
	C61.564186,30.728537 61.282894,30.804611 60.603741,30.929810 
	C59.137859,30.994465 58.069836,31.009993 56.949951,30.685768 
	C53.714619,28.933844 51.676136,30.429886 50.117332,35.120625 
	C50.004490,35.001652 50.237091,35.233044 49.787804,35.157936 
	C47.828972,35.110352 46.319431,35.137882 44.837402,35.078346 
	C44.864918,34.991283 44.833458,35.169270 44.882542,34.782867 
	C44.537846,31.786398 43.889938,29.689102 40.544479,32.288090 
	C39.156830,31.843225 38.092518,31.492748 36.800774,30.842426 
	C26.418961,29.419758 22.649736,32.163502 23.260923,40.757477 
	C23.208956,41.342293 23.116869,41.671951 22.651901,42.039337 
	C20.079460,43.017525 18.639334,42.680439 19.010567,39.901592 
	C20.015173,32.381664 21.034014,24.861818 22.258032,17.376411 
	C22.357956,16.765337 24.061119,16.416424 25.019989,15.961458 
	C25.020657,15.977221 25.046001,15.983643 25.198488,16.232470 
	C25.897055,16.637842 26.443136,16.794390 27.162838,17.269907 
	C29.442837,18.254065 31.570766,19.543964 33.651718,19.472172 
	C41.138012,19.213896 48.608456,18.496048 56.466957,17.939735 
	C58.794506,18.217731 60.739983,18.507843 63.064903,18.830702 
	C65.102760,18.159857 66.730591,17.368237 68.428490,16.778280 
	C70.017662,16.226105 71.681076,15.887636 73.311813,15.455116 
	C73.418098,17.196135 73.935921,19.032749 73.557632,20.661203 
	C72.113792,26.876724 74.392578,32.045998 77.623322,37.034256 
z"/>
<path fill="#C18E71" opacity="1.000000" stroke="none" 
	d="
M63.283630,83.058174 
	C62.296684,84.188393 61.309734,85.318611 59.864288,86.741646 
	C58.914661,87.349823 58.423538,87.665184 57.611603,87.986000 
	C56.862766,87.997673 56.434750,88.003891 55.779800,87.743782 
	C53.040192,86.494560 51.425129,87.156853 50.687824,89.990685 
	C50.194931,90.030243 49.997986,90.049469 49.457733,90.065292 
	C48.429317,90.062988 47.744217,90.064095 46.888947,89.744438 
	C44.384102,85.750275 41.183262,87.216156 37.885895,87.739456 
	C36.775925,87.015564 35.882236,86.523674 34.988552,86.031776 
	C34.529350,85.430321 34.070152,84.828857 33.304611,83.724350 
	C32.335949,81.424652 31.673632,79.627991 30.987717,77.388992 
	C31.403608,72.690117 31.843100,68.433586 32.308048,63.930496 
	C44.758553,67.639992 49.217422,67.573853 58.980427,64.992889 
	C63.269886,63.858917 64.575531,65.517242 64.904404,68.979935 
	C65.202469,72.118332 64.999756,75.304306 64.838120,78.784050 
	C64.200150,80.418594 63.741890,81.738380 63.283630,83.058174 
z"/>
<path fill="#A97550" opacity="1.000000" stroke="none" 
	d="
M65.017838,78.469299 
	C64.999756,75.304306 65.202469,72.118332 64.904404,68.979935 
	C64.575531,65.517242 63.269886,63.858917 58.980427,64.992889 
	C49.217422,67.573853 44.758553,67.639992 32.308048,63.930496 
	C31.843100,68.433586 31.403608,72.690117 30.737041,77.371231 
	C30.344288,77.770836 30.178614,77.745865 29.729332,77.509521 
	C26.459562,75.224449 23.473404,73.150757 20.567856,71.133034 
	C23.320961,65.494629 30.172791,63.927952 28.232283,57.103565 
	C31.365637,57.438129 33.953068,57.993851 36.504063,57.859222 
	C37.639843,57.799282 38.702232,56.348640 40.024277,55.352673 
	C41.206032,54.549328 42.161438,53.922520 43.421120,53.233627 
	C44.108788,53.016762 44.492176,52.861980 44.915794,53.112442 
	C46.026985,54.662163 47.097942,55.806644 48.168892,56.951126 
	C49.150974,55.531647 50.133060,54.112164 51.353275,52.726013 
	C51.591408,52.759342 52.069050,52.703445 52.262375,52.913582 
	C53.023273,53.626816 53.590847,54.129910 54.154442,55.017998 
	C57.151821,58.192635 60.122925,58.864399 63.343937,55.155243 
	C64.092567,54.960564 64.530441,54.886742 65.136322,55.083340 
	C66.461441,55.431133 67.618546,55.508511 68.811699,55.588299 
	C68.422760,57.574673 68.091019,59.268963 67.791489,61.259819 
	C67.869308,61.749954 67.914902,61.943527 68.011673,62.474659 
	C70.041458,66.218941 72.020065,69.625671 73.688400,73.087379 
	C72.880898,75.402069 72.383675,77.661789 71.886452,79.921501 
	C71.162010,79.943596 70.437569,79.965691 69.105087,79.745255 
	C67.337311,79.158257 66.177574,78.813774 65.017838,78.469299 
z"/>
<path fill="#A68164" opacity="1.000000" stroke="none" 
	d="
M39.797932,55.529209 
	C38.702232,56.348640 37.639843,57.799282 36.504063,57.859222 
	C33.953068,57.993851 31.365637,57.438129 28.232283,57.103565 
	C30.172791,63.927952 23.320961,65.494629 20.567856,71.133034 
	C23.473404,73.150757 26.459562,75.224449 29.489845,77.719452 
	C28.678968,78.720490 27.823967,79.300224 26.968966,79.879959 
	C23.863352,80.438614 21.885092,79.865128 21.772541,76.004547 
	C21.738953,74.852356 19.796206,73.755814 17.748283,71.604324 
	C20.199905,68.322105 23.006643,64.564461 26.047878,60.492874 
	C24.671768,59.002666 22.257204,56.921772 20.500864,54.385128 
	C15.376653,46.984333 15.768833,38.945374 17.831453,30.563326 
	C18.781000,26.704578 18.452431,22.531319 18.787851,17.683300 
	C19.252325,15.402809 19.632357,13.939688 20.012388,12.476566 
	C21.451248,12.660653 22.890110,12.844740 24.659775,13.533072 
	C25.000160,14.673444 25.009741,15.309569 25.019320,15.945695 
	C24.061119,16.416424 22.357956,16.765337 22.258032,17.376411 
	C21.034014,24.861818 20.015173,32.381664 19.010567,39.901592 
	C18.639334,42.680439 20.079460,43.017525 22.713863,42.418900 
	C23.729033,44.860191 24.309359,46.959648 24.966469,49.396675 
	C27.468935,53.946228 31.082712,56.028690 36.239723,55.884014 
	C36.687691,55.889652 36.865128,55.841251 37.389523,55.800976 
	C38.423630,55.715805 39.110783,55.622509 39.797932,55.529209 
z"/>
<path fill="#A68468" opacity="1.000000" stroke="none" 
	d="
M67.759277,60.963257 
	C68.091019,59.268963 68.422760,57.574673 68.811699,55.588299 
	C67.618546,55.508511 66.461441,55.431133 65.345917,54.829487 
	C71.794342,50.114544 73.054146,46.132931 70.795441,37.213440 
	C71.587524,38.186138 72.237442,39.346470 73.208855,40.082481 
	C74.339287,40.938980 75.751221,41.423958 77.370148,42.016716 
	C77.813782,42.415672 77.928268,42.868080 77.961975,44.008194 
	C77.626183,46.138039 77.371170,47.580170 77.116150,49.022301 
	C76.753883,49.794895 76.391617,50.567490 75.733627,51.818245 
	C75.233017,52.836819 75.028122,53.377224 74.823235,53.917633 
	C73.937035,55.034424 73.050842,56.151215 71.743301,57.689869 
	C70.134407,59.062241 68.946846,60.012749 67.759277,60.963257 
z"/>
<path fill="#A68468" opacity="1.000000" stroke="none" 
	d="
M77.762314,36.787510 
	C74.392578,32.045998 72.113792,26.876724 73.557632,20.661203 
	C73.935921,19.032749 73.418098,17.196135 73.311813,15.455116 
	C71.681076,15.887636 70.017662,16.226105 68.428490,16.778280 
	C66.730591,17.368237 65.102760,18.159857 63.182922,18.535923 
	C63.656044,17.177320 64.390587,16.146242 65.125130,15.115166 
	C65.125130,15.115167 64.989601,15.049297 65.354919,15.032022 
	C66.524002,14.388050 67.327766,13.761351 68.131531,13.134652 
	C68.131531,13.134653 67.991890,13.118849 68.435104,13.119313 
	C70.598854,12.675435 72.319397,12.231093 74.039940,11.786751 
	C75.355194,12.091520 76.670441,12.396291 78.272697,12.767565 
	C77.730560,14.532224 77.325371,15.851138 76.568871,17.810041 
	C74.283249,22.768158 74.052315,26.984797 76.966133,31.014072 
	C77.221680,32.126640 77.477226,33.239204 77.817764,34.935215 
	C77.965477,35.681458 78.028206,35.844254 78.090927,36.007050 
	C78.027718,36.184956 77.964516,36.362858 77.762314,36.787510 
z"/>
<path fill="#A4866E" opacity="1.000000" stroke="none" 
	d="
M25.019989,15.961458 
	C25.009741,15.309569 25.000160,14.673444 24.984644,13.719803 
	C26.427475,14.197314 27.876240,14.992341 29.778259,16.243809 
	C31.575514,16.945942 32.957348,17.521435 34.256084,17.372465 
	C37.515114,16.998644 40.736549,16.297108 43.973064,15.726997 
	C47.590542,15.858728 51.208023,15.990459 55.319008,16.435841 
	C55.903305,17.150278 55.994099,17.551065 56.084892,17.951853 
	C48.608456,18.496048 41.138012,19.213896 33.651718,19.472172 
	C31.570766,19.543964 29.442837,18.254065 26.998566,17.034843 
	C26.122450,16.315086 25.584225,16.149364 25.046001,15.983643 
	C25.046001,15.983643 25.020657,15.977221 25.019989,15.961458 
z"/>
<path fill="#D1A56A" opacity="1.000000" stroke="none" 
	d="
M38.102180,87.971443 
	C41.183262,87.216156 44.384102,85.750275 46.824615,90.073654 
	C46.807137,91.379089 46.683823,92.034546 46.560509,92.690002 
	C46.215263,92.765846 45.870018,92.841690 44.953365,92.778046 
	C42.190922,91.214409 37.990982,92.493332 38.102180,87.971443 
z"/>
<path fill="#F5E7D8" opacity="1.000000" stroke="none" 
	d="
M37.885895,87.739456 
	C37.990982,92.493332 42.190922,91.214409 44.694160,92.834137 
	C42.652607,95.404991 37.311123,93.923088 36.100861,90.520714 
	C35.668839,89.306175 35.404819,88.031876 35.026333,86.408318 
	C35.882236,86.523674 36.775925,87.015564 37.885895,87.739456 
z"/>
<path fill="#F7EDE0" opacity="1.000000" stroke="none" 
	d="
M67.791496,61.259819 
	C68.946846,60.012749 70.134407,59.062241 71.618599,57.971687 
	C72.737259,59.667465 73.612923,61.481564 74.367630,63.344658 
	C75.297005,65.638931 76.125572,67.974045 76.707321,70.474586 
	C74.566994,66.855888 72.794174,62.977592 67.960503,62.137104 
	C67.914902,61.943527 67.869308,61.749954 67.791496,61.259819 
z"/>
<path fill="#A68468" opacity="1.000000" stroke="none" 
	d="
M68.011673,62.474659 
	C72.794174,62.977592 74.566994,66.855888 76.678024,70.881790 
	C76.816292,71.957741 76.693459,72.809555 76.039032,73.691864 
	C75.004509,73.492371 74.501595,73.262383 73.998672,73.032402 
	C72.020065,69.625671 70.041458,66.218941 68.011673,62.474659 
z"/>
<path fill="#F7EDE0" opacity="1.000000" stroke="none" 
	d="
M77.231186,30.771923 
	C74.052315,26.984797 74.283249,22.768158 76.485924,18.189564 
	C77.001602,22.129320 77.248917,26.329548 77.231186,30.771923 
z"/>
<path fill="#D1A465" opacity="1.000000" stroke="none" 
	d="
M50.983776,89.970360 
	C51.425129,87.156853 53.040192,86.494560 55.777290,88.082962 
	C55.998268,89.361229 55.994827,90.033966 55.722225,90.916656 
	C54.298389,91.729401 53.143711,92.332199 51.989033,92.934998 
	C51.989033,92.934998 51.532448,92.918228 51.287102,92.689804 
	C51.041752,92.461388 51.009075,91.970741 51.007370,91.637604 
	C50.998371,90.859756 50.991074,90.415062 50.983776,89.970360 
z"/>
<path fill="#F7EDE0" opacity="1.000000" stroke="none" 
	d="
M56.466957,17.939735 
	C55.994099,17.551065 55.903305,17.150278 55.762871,16.444845 
	C58.568798,15.778082 61.424366,15.415963 64.702530,15.084505 
	C64.390587,16.146242 63.656044,17.177320 62.803482,18.503176 
	C60.739983,18.507843 58.794506,18.217731 56.466957,17.939735 
z"/>
<path fill="#F7EDE0" opacity="1.000000" stroke="none" 
	d="
M43.650551,15.497995 
	C40.736549,16.297108 37.515114,16.998644 34.256084,17.372465 
	C32.957348,17.521435 31.575514,16.945942 30.071241,16.371632 
	C34.383327,15.785005 38.855686,15.526998 43.650551,15.497995 
z"/>
<path fill="#F5E7D8" opacity="1.000000" stroke="none" 
	d="
M27.167442,80.160378 
	C27.823967,79.300224 28.678968,78.720490 29.773457,77.930824 
	C30.178614,77.745865 30.344288,77.770836 30.760639,77.813576 
	C31.673632,79.627991 32.335949,81.424652 33.062603,83.571487 
	C31.206598,82.761375 29.286261,81.601089 27.167442,80.160378 
z"/>
<path fill="#F5E7D8" opacity="1.000000" stroke="none" 
	d="
M73.688400,73.087379 
	C74.501595,73.262383 75.004509,73.492371 75.749435,73.857704 
	C74.857910,75.962151 73.724388,77.931244 72.238663,79.910919 
	C72.383675,77.661789 72.880898,75.402069 73.688400,73.087379 
z"/>
<path fill="#F5E7D8" opacity="1.000000" stroke="none" 
	d="
M52.034142,93.267914 
	C53.143711,92.332199 54.298389,91.729401 56.039486,90.990662 
	C57.058880,90.863945 57.491848,90.873161 57.924820,90.882370 
	C57.228981,94.482208 55.067619,94.930687 52.034142,93.267914 
z"/>
<path fill="#A4866E" opacity="1.000000" stroke="none" 
	d="
M19.655285,12.368042 
	C19.632357,13.939688 19.252325,15.402809 18.799305,17.259750 
	C17.765774,16.396481 16.805231,15.139392 15.346745,13.230630 
	C17.065939,12.808118 18.182060,12.533817 19.655285,12.368042 
z"/>
<path fill="#F5E7D8" opacity="1.000000" stroke="none" 
	d="
M64.838120,78.784042 
	C66.177574,78.813774 67.337311,79.158257 68.743004,79.763260 
	C67.298096,80.980377 65.607224,81.936966 63.599991,82.975861 
	C63.741890,81.738380 64.200150,80.418594 64.838120,78.784042 
z"/>
<path fill="#F7EDE0" opacity="1.000000" stroke="none" 
	d="
M73.962280,11.469709 
	C72.319397,12.231093 70.598854,12.675435 68.501251,13.143396 
	C69.208817,10.106233 71.363060,10.104225 73.962280,11.469709 
z"/>
<path fill="#F5E7D8" opacity="1.000000" stroke="none" 
	d="
M51.009075,91.970741 
	C51.009075,91.970741 51.041752,92.461388 51.059254,92.706367 
	C49.872108,92.927956 48.667458,92.904564 47.011658,92.785583 
	C46.683823,92.034546 46.807137,91.379089 46.994781,90.394424 
	C47.744217,90.064095 48.429317,90.062988 49.529732,90.357788 
	C50.299717,91.092712 50.654396,91.531723 51.009075,91.970741 
z"/>
<path fill="#F7EDE0" opacity="1.000000" stroke="none" 
	d="
M77.456116,48.945770 
	C77.371170,47.580170 77.626183,46.138039 78.022354,44.355171 
	C78.041039,45.632706 77.918564,47.250969 77.456116,48.945770 
z"/>
<path fill="#F5E7D8" opacity="1.000000" stroke="none" 
	d="
M57.932415,87.980545 
	C58.423538,87.665184 58.914661,87.349823 59.702892,87.017288 
	C59.638779,87.968338 59.277554,88.936554 58.488911,89.646790 
	C58.018467,88.919380 57.975441,88.449966 57.932415,87.980545 
z"/>
<path fill="#D1A56A" opacity="1.000000" stroke="none" 
	d="
M57.611603,87.986000 
	C57.975441,88.449966 58.018467,88.919380 58.167145,89.727066 
	C58.272800,90.065323 58.072258,90.462952 57.998539,90.672661 
	C57.491848,90.873161 57.058880,90.863945 56.308647,90.780716 
	C55.994827,90.033966 55.998268,89.361229 56.004219,88.349304 
	C56.434750,88.003891 56.862766,87.997673 57.611603,87.986000 
z"/>
<path fill="#F7EDE0" opacity="1.000000" stroke="none" 
	d="
M67.761124,13.090646 
	C67.327766,13.761351 66.524002,14.388050 65.414848,15.077864 
	C65.869881,14.442865 66.630302,13.744753 67.761124,13.090646 
z"/>
<path fill="#F7EDE0" opacity="1.000000" stroke="none" 
	d="
M75.132126,53.916245 
	C75.028122,53.377224 75.233017,52.836819 75.684616,52.136322 
	C75.767883,52.622440 75.604446,53.268646 75.132126,53.916245 
z"/>
<path fill="#F7EDE0" opacity="1.000000" stroke="none" 
	d="
M78.250542,35.904259 
	C78.028206,35.844254 77.965477,35.681458 77.932556,35.258614 
	C78.111618,35.266201 78.260887,35.533836 78.250542,35.904259 
z"/>
<path fill="#F6F1E9" opacity="1.000000" stroke="none" 
	d="
M70.811203,37.202156 
	C73.054146,46.132931 71.794342,50.114544 65.177910,54.559071 
	C64.530441,54.886742 64.092567,54.960564 62.976147,55.115204 
	C59.584534,55.008350 56.871479,54.820679 54.158421,54.633011 
	C53.590847,54.129910 53.023273,53.626816 52.243084,52.573883 
	C50.862476,47.980213 48.396442,46.000694 44.154633,46.658745 
	C45.915543,43.144714 44.370083,41.007320 41.971123,38.736942 
	C41.768448,37.389275 41.871208,36.108002 41.288219,35.570465 
	C37.239346,31.837240 28.767763,34.124535 27.114071,39.438251 
	C26.138683,42.572403 25.615974,45.847435 24.889683,49.059109 
	C24.309359,46.959648 23.729033,44.860191 23.086744,42.381168 
	C23.116869,41.671951 23.208956,41.342293 23.518116,40.508316 
	C26.411863,34.418499 30.785721,31.378866 37.028206,31.142271 
	C38.092518,31.492748 39.156830,31.843225 40.738537,32.520256 
	C42.448441,33.620964 43.640949,34.395119 44.833458,35.169270 
	C44.833458,35.169270 44.864918,34.991283 44.917866,35.397911 
	C45.797894,37.067352 46.624973,38.330162 47.629261,39.863537 
	C48.655357,38.041592 49.446224,36.637318 50.237091,35.233044 
	C50.237091,35.233044 50.004490,35.001652 50.436043,35.031387 
	C52.912338,33.715919 54.957077,32.370720 57.001816,31.025520 
	C58.069836,31.009993 59.137859,30.994465 60.846516,31.016495 
	C61.657520,31.031603 61.827885,31.009150 61.998249,30.986698 
	C63.071854,31.367369 64.145454,31.748039 65.728226,32.455997 
	C67.772018,34.241112 69.306656,35.698936 70.841286,37.156761 
	C70.841286,37.156761 70.826973,37.190872 70.811203,37.202156 
M55.486992,48.384716 
	C57.034344,47.163059 59.056522,46.206852 59.945301,44.617027 
	C60.452606,43.709572 59.330597,40.659466 58.561962,40.508362 
	C56.502213,40.103432 53.240078,39.922218 52.251362,41.126503 
	C49.813766,44.095543 50.924942,46.959274 55.486992,48.384716 
z"/>
<path fill="#A68164" opacity="1.000000" stroke="none" 
	d="
M36.800774,30.842426 
	C30.785721,31.378866 26.411863,34.418499 23.477997,40.253151 
	C22.649736,32.163502 26.418961,29.419758 36.800774,30.842426 
z"/>
<path fill="#A68468" opacity="1.000000" stroke="none" 
	d="
M56.949951,30.685770 
	C54.957077,32.370720 52.912338,33.715919 50.548889,35.150360 
	C51.676136,30.429886 53.714619,28.933844 56.949951,30.685770 
z"/>
<path fill="#A68468" opacity="1.000000" stroke="none" 
	d="
M70.895172,36.759323 
	C69.306656,35.698936 67.772018,34.241112 66.064438,32.520329 
	C69.466728,30.824327 70.312401,31.510641 70.895172,36.759323 
z"/>
<path fill="#A68468" opacity="1.000000" stroke="none" 
	d="
M49.787804,35.157936 
	C49.446224,36.637318 48.655357,38.041592 47.629261,39.863537 
	C46.624973,38.330162 45.797894,37.067352 44.890350,35.484974 
	C46.319431,35.137882 47.828972,35.110352 49.787804,35.157936 
z"/>
<path fill="#A68468" opacity="1.000000" stroke="none" 
	d="
M44.882542,34.782867 
	C43.640949,34.395119 42.448441,33.620964 41.061874,32.614647 
	C43.889938,29.689102 44.537846,31.786398 44.882542,34.782867 
z"/>
<path fill="#A68164" opacity="1.000000" stroke="none" 
	d="
M25.198488,16.232470 
	C25.584225,16.149364 26.122450,16.315086 26.824944,16.715874 
	C26.443136,16.794390 25.897055,16.637842 25.198488,16.232470 
z"/>
<path fill="#A68468" opacity="1.000000" stroke="none" 
	d="
M61.921864,30.819580 
	C61.827885,31.009150 61.657520,31.031603 61.244377,30.967369 
	C61.282894,30.804611 61.564186,30.728537 61.921864,30.819580 
z"/>
<path fill="#D1A56A" opacity="1.000000" stroke="none" 
	d="
M51.007370,91.637604 
	C50.654396,91.531723 50.299717,91.092712 49.873039,90.361198 
	C49.997986,90.049469 50.194931,90.030243 50.687824,89.990685 
	C50.991074,90.415062 50.998371,90.859756 51.007370,91.637604 
z"/>
<path fill="#D6753B" opacity="1.000000" stroke="none" 
	d="
M51.115143,52.692680 
	C50.133060,54.112164 49.150974,55.531647 48.168892,56.951126 
	C47.097942,55.806644 46.026985,54.662163 45.052917,52.804771 
	C47.622719,47.482052 49.223866,51.527695 51.115143,52.692680 
z"/>
<path fill="#F3E2CF" opacity="1.000000" stroke="none" 
	d="
M51.353279,52.726013 
	C49.223866,51.527695 47.622719,47.482052 45.012688,52.399532 
	C44.492176,52.861980 44.108788,53.016762 43.425705,52.793747 
	C43.339848,50.714561 43.553684,49.013180 43.787140,47.187447 
	C43.806763,47.063103 44.052578,47.007538 44.052578,47.007538 
	C48.396442,46.000694 50.862476,47.980213 52.049759,52.363747 
	C52.069050,52.703445 51.591408,52.759342 51.353279,52.726013 
z"/>
<path fill="#F6F1E9" opacity="1.000000" stroke="none" 
	d="
M43.767521,47.311790 
	C43.553684,49.013180 43.339848,50.714561 43.121426,52.855827 
	C42.161438,53.922520 41.206032,54.549328 40.024277,55.352673 
	C39.110783,55.622509 38.423630,55.715805 37.379051,55.588898 
	C37.021626,55.368690 36.997761,54.944199 37.053444,54.607838 
	C38.736897,52.234097 40.364662,50.196716 42.295006,48.032639 
	C42.987556,47.707893 43.377537,47.509842 43.767521,47.311790 
z"/>
<path fill="#A68468" opacity="1.000000" stroke="none" 
	d="
M54.154442,55.017998 
	C56.871479,54.820679 59.584534,55.008350 62.665382,55.236061 
	C60.122925,58.864399 57.151821,58.192635 54.154442,55.017998 
z"/>
<path fill="#F9F9F7" opacity="1.000000" stroke="none" 
	d="
M41.992432,48.159336 
	C40.364662,50.196716 38.736897,52.234097 36.846317,54.711712 
	C36.313240,55.318619 36.108467,55.544628 35.969189,55.829971 
	C31.082712,56.028690 27.468935,53.946228 24.966469,49.396675 
	C25.615974,45.847435 26.138683,42.572403 27.114071,39.438251 
	C28.767763,34.124535 37.239346,31.837240 41.288219,35.570465 
	C41.871208,36.108002 41.768448,37.389275 41.597630,38.752113 
	C35.076546,40.288139 34.272568,42.816528 38.235474,48.980335 
	C39.447929,48.715378 40.720181,48.437359 41.992432,48.159336 
z"/>
<path fill="#F3E2CF" opacity="1.000000" stroke="none" 
	d="
M36.239723,55.884014 
	C36.108467,55.544628 36.313240,55.318619 36.790634,55.048073 
	C36.997761,54.944199 37.021626,55.368690 37.032097,55.580769 
	C36.865128,55.841251 36.687691,55.889652 36.239723,55.884014 
z"/>
<path fill="#1C1C1C" opacity="1.000000" stroke="none" 
	d="
M42.295006,48.032639 
	C40.720181,48.437359 39.447929,48.715378 38.235474,48.980335 
	C34.272568,42.816528 35.076546,40.288139 41.585716,39.162693 
	C44.370083,41.007320 45.915543,43.144714 44.154633,46.658745 
	C44.052578,47.007538 43.806763,47.063103 43.787140,47.187447 
	C43.377537,47.509842 42.987556,47.707893 42.295006,48.032639 
z"/>
<path fill="#151516" opacity="1.000000" stroke="none" 
	d="
M55.122620,48.365021 
	C50.924942,46.959274 49.813766,44.095543 52.251362,41.126503 
	C53.240078,39.922218 56.502213,40.103432 58.561962,40.508362 
	C59.330597,40.659466 60.452606,43.709572 59.945301,44.617027 
	C59.056522,46.206852 57.034344,47.163059 55.122620,48.365021 
z"/>
</svg>